<?xml version="1.0" encoding="UTF-8"?>
<svg width="13px" height="12px" viewBox="0 0 13 12" version="1.1" xmlns="http://www.w3.org/2000/svg" xmlns:xlink="http://www.w3.org/1999/xlink">
    <!-- Generator: Sketch 47.1 (45422) - http://www.bohemiancoding.com/sketch -->
    <title>warning-sign</title>
    <desc>Created with Sketch.</desc>
    <defs></defs>
    <g id="Page-1" stroke="none" stroke-width="1" fill="none" fill-rule="evenodd">
        <g id="widget" transform="translate(-309.000000, -310.000000)" stroke="#F5A623" stroke-width="0.1" fill="#F5A623" fill-rule="nonzero">
            <g id="Group-2" transform="translate(56.000000, 64.000000)">
                <g id="warning-sign" transform="translate(254.000000, 247.000000)">
                    <path d="M10.9169321,9.55267913 L5.70753533,0.149158879 C5.66144293,0.0658566978 5.57616304,0.0146417445 5.48397826,0.0146417445 C5.39179348,0.0146417445 5.3064837,0.0658878505 5.2603913,0.149158879 L0.0345842391,9.58205607 C-0.0115380435,9.66535826 -0.0115380435,9.76788162 0.0345842391,9.8511838 C0.0806766304,9.93448598 0.165956522,9.98570093 0.258171196,9.98570093 L10.7096658,9.98570093 C10.7105027,9.98570093 10.7113696,9.98570093 10.7122364,9.98570093 C10.8548179,9.98570093 10.9704375,9.86535826 10.9704375,9.71657321 C10.9704375,9.65482866 10.9504402,9.59813084 10.9169321,9.55267913 Z M0.705404891,9.44753894 L5.48397826,0.821838006 L10.2625217,9.44753894 L0.705404891,9.44753894 L0.705404891,9.44753894 Z" id="Shape"></path>
                    <path d="M5.22577717,3.54520249 L5.22577717,7.40479751 C5.22577717,7.5534891 5.34136685,7.67389408 5.48397826,7.67389408 C5.62655978,7.67389408 5.74214946,7.5535514 5.74214946,7.40479751 L5.74214946,3.54520249 C5.74214946,3.39672897 5.62655978,3.27613707 5.48397826,3.27613707 C5.34136685,3.27616822 5.22577717,3.39676012 5.22577717,3.54520249 Z" id="Shape"></path>
                    <path d="M5.48397826,7.98732087 C5.30696196,7.98732087 5.16339402,8.13685358 5.16339402,8.32133956 C5.16339402,8.50582555 5.30696196,8.65557632 5.48397826,8.65557632 C5.66096467,8.65557632 5.8045625,8.50576324 5.8045625,8.32133956 C5.8045625,8.13685358 5.66099457,7.98732087 5.48397826,7.98732087 Z" id="Shape"></path>
                </g>
            </g>
        </g>
    </g>
</svg>