<svg xmlns="http://www.w3.org/2000/svg" width="153" height="113" viewBox="0 0 153 113">
    <g fill="none" fill-rule="nonzero">
        <path fill="#02ADE5" d="M135.163 61.706c4.27-9.904 2.512-21.839-5.276-29.71-7.788-7.872-19.093-9.65-28.64-5.84C100.998 11.68 89.44 0 74.87 0c-14.32 0-26.127 11.935-26.127 26.663-2.513-1.016-4.271-1.524-6.783-1.524-8.542 0-15.576 7.11-15.576 15.744 0 2.286.502 4.317 1.256 6.095-.503 0-1.005-.254-1.759-.254-5.527 0-10.049 4.57-10.049 10.157 0 1.777.503 3.301 1.256 4.825C7.038 65.515.004 74.91.004 86.337-.247 101.32 11.56 113 26.13 113h100.49A26.301 26.301 0 0 0 153 86.591c0-11.68-7.537-21.33-17.837-24.885z" opacity=".216"/>
        <g fill="#FFF">
            <path d="M74.91 38.13l22.858 23.6c2.733 2.822 2.733 7.44 0 10.261a6.892 6.892 0 0 1-9.938 0L74.91 58.908 62.24 71.991a6.892 6.892 0 0 1-9.938 0c-2.733-2.822-2.733-7.44 0-10.26l22.609-23.6z"/>
            <path d="M74.91 48.648c3.976 0 7.454 3.334 7.454 7.439v33.348c0 4.104-3.478 7.439-7.453 7.439s-7.454-3.335-7.454-7.44V56.088c0-4.361 3.479-7.44 7.454-7.44z"/>
        </g>
    </g>
</svg>
