<svg xmlns="http://www.w3.org/2000/svg" width="13" height="12" viewBox="0 0 13 12">
    <g fill="#F96678" fill-rule="nonzero" stroke="#F96678" stroke-width=".1">
        <path d="M11.917 10.553l-5.21-9.404a.256.256 0 0 0-.223-.134.256.256 0 0 0-.224.134l-5.225 9.433a.279.279 0 0 0 0 .27.256.256 0 0 0 .223.134h10.454c.143 0 .258-.12.258-.27a.275.275 0 0 0-.053-.163zm-10.212-.105l4.779-8.626 4.779 8.626H1.705z"/>
        <path d="M6.226 4.545v3.86c0 .148.115.269.258.269.143 0 .258-.12.258-.27V4.546a.264.264 0 0 0-.258-.269.264.264 0 0 0-.258.27zM6.484 8.987c-.177 0-.32.15-.32.334 0 .185.143.335.32.335.177 0 .32-.15.32-.335a.328.328 0 0 0-.32-.334z"/>
    </g>
</svg>
