<?xml version="1.0" encoding="UTF-8"?>
<svg width="15px" height="16px" viewBox="0 0 15 16" version="1.1" xmlns="http://www.w3.org/2000/svg" xmlns:xlink="http://www.w3.org/1999/xlink">
    <!-- Generator: Sketch 47.1 (45422) - http://www.bohemiancoding.com/sketch -->
    <title>picture</title>
    <desc>Created with Sketch.</desc>
    <defs></defs>
    <g id="Page-1" stroke="none" stroke-width="1" fill="none" fill-rule="evenodd">
        <g id="widget" transform="translate(-309.000000, -344.000000)" stroke="#CCCCCC" stroke-width="0.4" fill="#CCCCCC" fill-rule="nonzero">
            <g id="picture" transform="translate(310.000000, 345.000000)">
                <path d="M3.5,6 C4.32716825,6 5,5.32716825 5,4.50026935 C5,3.67283175 4.32716825,3 3.5,3 C2.67283175,3 2,3.67283175 2,4.5 C2,5.32716825 2.67283175,6 3.5,6 Z M3.5,3.53869635 C4.03007721,3.53869635 4.46130365,3.97019214 4.46130365,4.5 C4.46130365,5.02980786 4.03007721,5.46130365 3.5,5.46130365 C2.96992279,5.46130365 2.53869635,5.03007721 2.53869635,4.50026935 C2.53869635,3.97046148 2.96992279,3.53869635 3.5,3.53869635 Z" id="Shape"></path>
                <path d="M0,0 L0,10.7692308 L0,14 L13,14 L13,10.7692308 L13,0 L0,0 Z M0.52,0.538461538 L12.48,0.538461538 L12.48,7.73419231 L9.79576,5.18619231 C9.7448,5.138 9.67772,5.11403846 9.60856,5.11565385 C9.53966,5.11888462 9.47466,5.15038462 9.42812,5.20315385 L6.88168,8.09119231 L5.6485,6.81423077 C5.55126,6.71380769 5.39578,6.70869231 5.29282,6.80238462 L0.94172,10.7692308 L0.52,10.7692308 L0.52,0.538461538 Z M12.48,13.4615385 L0.52,13.4615385 L0.52,11.3076923 L12.48,11.3076923 L12.48,13.4615385 Z M1.72874,10.7692308 L5.45298,7.37396154 L8.1315,10.1473077 C8.23316,10.2525769 8.39748,10.2525769 8.49914,10.1473077 C8.6008,10.0420385 8.6008,9.87188462 8.49914,9.76661538 L7.24932,8.47242308 L9.63638,5.76557692 L12.48,8.46461538 L12.48,10.7692308 L1.72874,10.7692308 Z" id="Shape"></path>
            </g>
        </g>
    </g>
</svg>