<svg xmlns="http://www.w3.org/2000/svg" width="16" height="13" viewBox="0 0 16 13">
    <g fill="#CCC" fill-rule="nonzero" stroke="#CCC" stroke-width=".3">
        <path d="M9.155 1.004c-.967 0-1.914.261-2.743.757a5.48 5.48 0 0 0-1.824 1.792H2.521C1.681 3.553 1 4.246 1 5.1v2.802c0 .853.681 1.546 1.521 1.546h2.067a5.48 5.48 0 0 0 1.824 1.792 5.337 5.337 0 0 0 2.743.757c.216 0 .39-.176.39-.396V1.4a.393.393 0 0 0-.39-.396zm-4.737 7.65H2.52a.748.748 0 0 1-.742-.753V5.099c0-.416.332-.754.742-.754h1.897v4.31zm4.347 2.535a4.644 4.644 0 0 1-3.568-2.247V4.061a4.644 4.644 0 0 1 3.568-2.247v9.375zM11.071 3.433a.383.383 0 0 0-.542.1.398.398 0 0 0 .098.551 2.967 2.967 0 0 1 1.244 2.42c0 .963-.465 1.869-1.244 2.42a.403.403 0 0 0-.098.552.384.384 0 0 0 .542.1 3.768 3.768 0 0 0 1.58-3.069c0-1.22-.592-2.376-1.58-3.074z"/>
        <path d="M12.578 1.793a.383.383 0 0 0-.543.1.398.398 0 0 0 .099.552A4.975 4.975 0 0 1 14.22 6.5a4.97 4.97 0 0 1-2.087 4.057.403.403 0 0 0-.099.552.384.384 0 0 0 .543.1A5.773 5.773 0 0 0 15 6.5a5.765 5.765 0 0 0-2.422-4.708z"/>
    </g>
</svg>
